<svg xmlns="http://www.w3.org/2000/svg" viewBox="0 0 24 24">
    <path d="m14.25 0h-11.5c-1.52 0-2.75 1.23-2.75 2.75v15.5c0 1.52 1.23 2.75 2.75 2.75h7.38l.22-1.23c.1-.56.36-1.06.76-1.47l5.89-5.88v-9.67c0-1.52-1.23-2.75-2.75-2.75zm-10.25 4h4c.55 0 1 .45 1 1s-.45 1-1 1h-4c-.55 0-1-.45-1-1s.45-1 1-1zm5 10h-5c-.55 0-1-.45-1-1s.45-1 1-1h5c.55 0 1 .45 1 1s-.45 1-1 1zm4-4h-9c-.55 0-1-.45-1-1s.45-1 1-1h9c.55 0 1 .45 1 1s-.45 1-1 1z"/>
    <path d="m12.528 24c-.197 0-.389-.078-.53-.22-.173-.173-.251-.419-.208-.661l.53-3.005c.026-.151.1-.291.208-.4l7.425-7.424c.912-.914 1.808-.667 2.298-.177l1.237 1.237c.683.682.683 1.792 0 2.475l-7.425 7.425c-.108.109-.248.182-.4.208l-3.005.53c-.043.008-.087.012-.13.012zm3.005-1.28h.01z"/>
</svg>
