<svg xmlns="http://www.w3.org/2000/svg" viewBox="0 0 2880 512">
  <path d="M378 63l6 1 20 3c10 2 20 5 29 9 11 4 20 9 29 16 12 10 21 25 25 41l2 16c2 22-4 42-17 60-7 10-15 18-24 26a262 262 0 01-38 27v-6l-1-16-1-3v-2l-2-14c-1-8-3-15-3-23v-17-16l-1-19-2-19c-1-8-4-15-9-21-3-5-10-8-16-7h-8l-3-1-4-6c-3-6-8-7-14-6l-6 1-11-1-16-6-6-1-4-1c-3-1-6-1-9 1l-7 5c-1 2-4 3-6 2-5 0-8 2-9 6l-8 10-2 5-3 19v2l-8 19c-2 5-4 10-3 16l3 13 2 13c1 3 0 5-1 8-1 8-4 15-7 23-1 2-2 1-3 1l-7-1c-7 0-14 2-21 4l-25 7-27 4c-9 1-18 0-26-2l-7-1 3-8a3310 3310 0 017-22l18-15c6-4 13-7 21-8 10-3 22-2 32 3 7 3 14 8 18 15l1 2v-4c-3-10-9-17-17-23l-14-10-13-7-5-1-5-1-5-1-15-2 6-19H19l4-7 37-60 1-1h317zM251 449l-2-4c-6-9-10-20-15-30-4-10-7-20-9-31-1-6-1-12 2-17l3-9 3-3 17-11 1-1 1 6v22c0 8 3 14 8 19l2 2 12 7c6 3 12 3 18 3l1 1c2 9 7 16 11 23l7 11c1 3 3 5 6 7 2 1 4 1 6-1v-6l-7-12-3-9v-12l1-2 25-23 15-11 3-1 6-1c1-1 2 0 2 1l17 37c1 2 2 2 3 2h22l-1 8-1 3c0 3-1 7-4 10-5 7-9 14-12 22H251zM62 449l3-11 32-103 1-1 3 1 7 4 9 5 8 3 7 4 16 17c5 6 8 13 9 20l4 21 4 29 2 11H62z"/>
  <path d="M188 449a127 127 0 01-19-57l-1-19c-1-6-4-11-8-16-7-9-15-17-24-25l-5-7-5-12-2-8-1-7-1-2-1-10v-1l7 5 10 5 6 3a137 137 0 0033 8c5 1 10 0 15-3 6-3 12-6 18-7l5-1 3 2v14l-7 25-6 23c-3 11-2 23 1 34a162 162 0 0030 56h-48zM438 449c4-10 3-21 1-31l-1-12h55l-1 8c-3 12-11 20-21 26-6 4-14 7-22 8l-1 1h-10zM311 360l1-9-1-11-1-3a2 2 0 00-4 1v3c0 7-2 13-4 18-1 5-5 8-8 11l-6 3h-14c-5-2-8-6-9-11-1-6-2-12-1-18l1-18 1-6v-6-25l-1-3-1-2-2-6-1-4 1-20-1-6-1-9c0-5 1-9 3-13l1-4-2-2-2-2c-2-2-1-4-1-6l4-14 2-11c1-5-1-8-2-12l-2-8-1-7 3-12v-1c4-4 9-7 15-9l10-1 7 2 13 7c4 1 7 4 10 6l3 2c5 2 8 7 11 11 4 5 7 10 12 14l19 13c8 6 15 13 21 21l10 11c4 4 7 8 7 14l1 16c0 4-3 7-6 9s-5 3-6 6c-4 4-8 9-14 11l-42 18 3 7 4 10v2l-7 11-7 13-8 14-7 6-1-1zm-10-55v-1l1-2c2-7 5-14 5-21v-11c0-1 0-3-2-3l-4 3c-2 4-4 9-4 14-1 8-3 17-7 25a54 54 0 00-5 13 4 4 0 005 4l11-7c2-3 5-5 8-6a22 22 0 0010-9 144 144 0 0014-27c1-3 1-6-2-8-2-2-4-1-6-1l-5 2-2 4c-2 6-3 11-6 16-2 5-5 9-9 14l-2 1zm90-52c-1-7-2-13-6-19-1-3-3-5-5-6-3-1-5 0-5 3l-1 1-1 3-2 15-2 12-3 15 1 3 3-1 1-1 7-10c3-4 5-8 10-10 2-1 3-3 3-5zm-61-77c1-5-4-10-8-13-3-1-5 0-6 3v6l2 13c1 4 1 9 3 12 1 2 2 3 4 3s2-2 3-4v-1l1-7 1-12zm4 37v3l1 2 3-1 2-3c1-2 3-3 3-6l2-7c0-4 0-8-4-11l-5-3c-2-2-4-1-4 1v16l2 9zm-35-59l-1-4c0-2-1-3-3-4l-5-2c-3-1-6 1-6 4v7c0 5 1 9 3 14 1 2 3 2 5 0l1-1c2 0 3-2 4-3l2-11zm1 13c1 3 0 6 2 8v1c0 2 2 4 4 5 2 0 3 0 4-2l3-13v-6l-4-7-3-2c-3 0-5 3-5 5l-1 11zm60 45l-1-4-5-5a4 4 0 00-6 3v10l2 10 4 1c2 0 2-1 3-2v-2l2-4 1-7zm-91-49l3 9 4 4c0 1 2 2 3 1s3-1 2-3v-7-7c-1-3-3-4-5-4-2-1-4 0-5 2l-2 5zm105 54l-1-4-3-5-5-1-2 4 3 17 2 2c2 0 3-1 3-2v-2l2-3 1-6zm-103 20c1 5-1 9-3 13-2 2-2 5-2 8l2 10 1 4 1 2 1-2v-2l2-17 2-16-1-2-1-2-2 2v2zm10 103v-8l-2-2-2 1-2 4c0 5-1 11 1 16 1 2 1 2 4 1 1 0 3-4 2-5l-1-3v-4zm36 0l1-2a557 557 0 008-19l-3-2-4 2-1 7-2 10c-1 2-1 3 1 4zm-30-43l-1-5h-2l-1 1-4 13-2 7v3c2 2 3 1 4 0l3-8 3-11zm-11-119l-3 6v8l2 3c2 0 3-1 3-2 3-5 2-11-2-15zm6 26l-2-2h-4a3 3 0 00-2 4l2 5c0 2 1 3 2 3 2 0 3-2 3-3l1-7zm-6 159c2 0 4-2 4-4l-3-2c-1 0-4 2-4 4a3 3 0 003 2zm6-2l-2 5a2 2 0 002 2l3-3-2-3-1-1zM383 185c-5-1-7-4-10-8s-6-9-8-15l-3-4-3-1-1 6a4 4 0 01-6 2c-2-1-4-2-4-4l-2-2v-3-4l-2-2 1-2c3-2 3-4-1-6v-1c1 0 2-2 1-3 2-3 2-3 0-5l-1-1 2-9 1-2v-2l2-8v-4l-2-2c2-1 3 2 5-1 1-2 1-4-1-5a2 2 0 013 0l4 4 5 4a73 73 0 0011 2l5 1c3 0 6 1 7 4l5 5 2 7v32l-1 22-3 3-1-2-1-2 2-16v-2l-1-1-1 1-2 2-2 4-3 1-4-1c-2 0-2 2-1 3l4 3 2 1 2 11zm3-31l1 1c1 0 2 0 2-2l-2-7-3-7c-1-2-2-3-4-3-1 0-2-1-1-2l2-2c2-1 3 0 4 3 1 2 1 2 3 1 0-3 0-6-2-9v-1c0-2-1-2-3-2l-4 2c-6 4-11 10-15 17l-3 3a2 2 0 00-1 4l5 2 1 1 8 10 4-1c2 0 4-1 5-3l2-5h1zm-1-32a3 3 0 00-4-3c-5 1-8 5-11 8l-2 3c6-4 11-7 17-8z"/>
  <path d="M264 375l3 2c2 2 4 2 7 2h13c5 0 9 0 14-2h3l4-3 7-4 15-11c10-7 15-16 19-26v-1l5 11 1 2c1 2 1 2-1 4l-11 8c-6 4-11 11-16 16l-14 15c-4 4-10 6-16 6l-10-1-9-2c-4-1-8-5-12-8l-2-5v-3zM312 113h-3l-4-5v-3l2-5 4-3h4l3 2c3 1 3 4 3 6l1 2c1 2 1 2-2 4l-8 2zM181 167c-12 1-23 2-33 6l3-8c10-2 20-1 30 2zM274 113l-2-1c-3-1-3-1-3-4l4-9a2 2 0 013 0l1 2 1 9c0 2-1 3-4 3z"/>
  <path d="M699 365c0 21-14 29-39 29H557v-41h85v-75h-49c-26 0-36-11-36-31v-99c0-21 13-30 39-30h95v41h-78v79h50c26 0 36 11 36 31v96zM870 159h-50v235h-57V159h-49v-41h156v41zM1036 365c0 20-12 29-37 29h-76c-24 0-38-8-38-29V147c0-20 13-29 38-29h75c25 0 38 8 38 29v218zm-56-12V159h-38v194h38zM1208 263c0 21-14 29-39 29h-56v102h-56V118h112c25 0 39 9 39 30v115zm-57-12v-92h-38v92h38zM1456 394h-56V292h-38v102h-57V148c0-21 14-30 39-30h112v276zm-56-142v-93h-38v93h38zM1627 159h-50v235h-56V159h-49v-41h155v41zM1873 394h-57V259l-36-46h-2v181h-57V118h47l45 59h3v-59h57v276zM2044 365c0 20-12 29-37 29h-76c-24 0-38-8-38-29V147c0-20 13-29 38-29h76c24 0 37 8 37 29v218zm-56-12V159h-38v194h38zM2215 159h-50v235h-56V159h-49v-41h155v41zM2382 394h-57V278h-38v116h-57V118h57v120h38V118h57v276zM2403 118h57v275h-57zM2631 394h-56V259l-37-46h-2v181h-56V118h47l45 59h3v-59h56v276zM2803 394h-112c-25 0-39-8-39-29V148c0-21 14-30 39-30h100v41h-83v194h39V238h56v156z"/>
</svg>
