<svg xmlns="http://www.w3.org/2000/svg" viewBox="0 0 2880 512">
    <g>
        <path d="M378.324 62.771c1.782.34 3.565.707 5.361.99 6.734 1.061 13.509 1.825 20.186 3.169 10.07 1.962 19.934 4.86 29.465 8.657 10.234 3.936 19.783 9.465 28.292 16.381 12.779 10.401 21.695 24.804 25.306 40.88 1.163 5.468 1.966 11.006 2.405 16.579 2.051 21.982-4.583 41.546-17.131 59.412-6.969 9.664-15.082 18.451-24.16 26.169-11.475 9.835-23.78 18.657-36.779 26.367-.303.155-.614.292-.933.411-.142-2.151-.283-4.145-.411-6.154-.311-5.333-.594-10.68-.962-16.013-.148-.82-.385-1.621-.707-2.39-.271-.791-.488-1.599-.65-2.419-.595-4.498-1.189-8.997-1.684-13.509-.863-7.851-2.999-15.56-2.829-23.524.099-5.743-.481-11.501-.537-17.258 0-5.248.367-10.51.24-15.758-.17-6.309-.594-12.618-1.103-18.899-.51-6.28-1.259-12.731-1.91-19.054-.638-7.679-3.527-15.002-8.303-21.048-3.84-5.14-10.278-7.681-16.593-6.55-2.733.328-5.492.366-8.233.113-1.152-.194-2.193-.803-2.928-1.711-1.365-1.722-2.586-3.553-3.65-5.475-3.48-6.082-7.752-6.973-13.679-6.493-2.164.17-4.243.835-6.478 1.16-3.651.421-7.351-.01-10.807-1.259-5.432-1.697-10.836-3.508-16.282-5.177-1.924-.594-3.933-.933-5.899-1.414-1.212-.236-2.408-.553-3.579-.948-3.162-1.243-6.735-.901-9.604.919-2.308 1.439-4.469 3.103-6.451 4.965-1.755 1.807-4.219 2.755-6.733 2.589-4.414-.424-7.073 1.245-8.827 5.305-1.878 3.712-4.397 7.064-7.441 9.902-1.118 1.396-1.811 3.086-1.994 4.866-1.061 6.592-1.881 13.226-2.829 19.804-.122.603-.321 1.188-.594 1.739-2.674 6.408-5.461 12.731-8.007 19.21-1.938 4.909-3.48 10.015-2.829 15.334.523 4.527 1.584 8.982 2.49 13.452.905 4.47 2.206 8.488 2.702 12.901.297 2.532-.679 5.206-1.019 7.823-1.089 8.233-4.626 15.56-7.596 23.241-.623 1.584-1.74.877-2.702.764-2.338-.425-4.7-.704-7.073-.835-7.178.343-14.279 1.632-21.119 3.834-8.106 2.376-16.126 5.205-24.373 7.073-8.997 1.966-18.191 3.14-27.329 4.356-9.138 1.217-17.767-.523-26.523-2.178-1.995-.368-3.961-.82-6.182-1.287.75-2.532 1.415-4.98 2.193-7.398 2.121-6.8 4.267-13.599 6.436-20.398.237-.796.681-1.513 1.287-2.08 5.658-4.937 11.317-10.015 17.343-14.655 6.026-4.639 13.438-7.072 21.02-8.487 10.742-2.321 21.94-1.335 32.111 2.829 7.546 3.244 13.904 8.751 18.191 15.758l.721 1.16c.87-1.124 1.035-2.648.425-3.932-3.037-9.085-8.896-16.966-16.721-22.492-4.696-3.239-9.194-6.775-14.018-9.817-4.25-2.584-8.631-4.945-13.127-7.073-1.689-.656-3.444-1.13-5.234-1.414-1.499-.34-2.999-.651-4.512-.976-1.768-.368-3.537-.863-5.333-1.061-5.008-.523-10.015-.92-15.235-1.415 1.886-6.412 3.772-12.962 5.658-19.648H18.785c1.415-2.291 2.603-4.371 3.89-6.436l37.387-60.26c.196-.393.362-.799.495-1.217h317.767zM251.353 449.116c-.707-1.259-1.414-2.575-2.15-3.777-6.281-9.506-10.27-20.129-14.74-30.498-4.32-9.724-7.482-19.922-9.421-30.385-1.061-6.082-1.046-12.009 1.542-17.767 1.33-2.999 2.306-6.153 3.721-9.095.595-1.236 1.592-2.234 2.829-2.829 6.343-2.606 12.165-6.335 17.187-11.006.198-.184.438-.325.947-.707.156 2.193.382 4.131.425 6.054.141 7.469.212 14.938.367 22.393.156 7.455 3.141 13.452 7.667 18.983.615.742 1.363 1.361 2.207 1.825 4.032 2.263 8.077 4.555 12.194 6.648 5.502 2.83 11.557 2.957 17.54 3.282.75 0 1.415 0 1.627 1.005 1.966 8.402 6.266 15.715 10.779 22.915 2.487 3.626 4.74 7.405 6.747 11.317 1.293 2.743 3.443 4.993 6.125 6.408 1.801 1.213 4.239.942 5.729-.637 1.377-1.668 1.418-4.085.099-5.799-2.639-3.949-5.062-8.038-7.256-12.25-1.241-2.845-1.974-5.885-2.165-8.983-.247-4.112-.276-8.234-.085-12.349.099-.663.43-1.27.934-1.712 7.95-7.879 15.56-16.126 24.67-22.76 5.064-3.706 9.973-7.639 15.009-11.316.844-.464 1.772-.757 2.73-.863 2.079-.467 4.243-.792 6.266-1.344 1.415-.382 1.995.113 2.546 1.315 5.659 12.42 11.416 24.812 17.074 37.246.369 1.118 1.492 1.823 2.659 1.669 6.564-.085 13.128 0 19.691 0h1.995l-1.16 8.247c-.113.778-.269 1.57-.311 2.348-.285 3.621-1.656 7.073-3.933 9.902-5.093 7.007-9.315 14.607-12.575 22.633l-137.51-.113zM61.915 449.116c1.061-3.636 2.065-7.285 3.183-10.892 10.713-34.431 21.426-68.852 32.139-103.263.127-.41.297-.807.523-1.415 1.061.623 2.009 1.259 3.027 1.768 2.306 1.189 4.654 2.292 6.974 3.466 3.169 1.613 6.267 3.367 9.492 4.88 2.546 1.203 5.276 2.009 7.822 3.226 2.601.987 5.03 2.376 7.2 4.116 5.588 5.432 11.006 11.048 16.112 16.975 5.107 5.927 7.37 12.971 8.686 20.482 1.216 6.96 2.829 13.849 3.932 20.809 1.528 9.604 2.702 19.252 4.117 28.871.551 3.678 1.343 7.313 2.037 10.977H61.915z"/>
        <path d="M187.868 449.116c-4.652-7.345-8.539-15.147-11.6-23.284-2.702-7.808-4.88-15.815-6.903-23.835-.609-3.336-.883-6.724-.82-10.114-.283-6.196-.34-12.42-.75-18.616s-3.536-11.642-7.54-16.508c-7.415-8.844-15.636-16.98-24.556-24.302-2.12-1.959-3.761-4.379-4.796-7.073-1.808-4.105-3.385-8.308-4.724-12.589-.863-2.674-1.16-5.531-1.825-8.276-.509-2.079-1.231-4.102-1.839-6.167-.242-.731-.408-1.484-.495-2.249-.226-3.24-.41-6.493-.594-9.732-.033-.471-.033-.944 0-1.415 1.973 1.772 4.047 3.43 6.21 4.965 3.239 2.023 6.648 3.749 10.043 5.489 2.108 1.075 4.385 1.81 6.465 2.914 6.086 3.098 12.645 5.168 19.407 6.125 4.528.895 9.098 1.56 13.693 1.994 4.949.229 9.873-.834 14.287-3.084 6.125-2.899 12.067-6.464 18.856-7.822 1.486-.283 2.999-.396 4.513-.552 1.514-.155 2.461.524 2.829 2.179.802 4.508.725 9.129-.226 13.608-1.415 8.685-4.102 17.059-6.394 25.533-2.023 7.497-3.749 15.079-5.743 22.633-2.965 11.174-2.789 22.953.509 34.034 5.658 20.271 16.225 37.854 28.843 54.404.438.58.863 1.174 1.287 1.768l-48.137-.028zM437.736 449.116c4.243-10.312 3.494-20.851 1.655-31.502-.651-3.735-.792-7.568-1.189-11.515h55.013c-.453 2.631-.764 5.262-1.415 7.823-2.829 11.854-10.326 20.214-20.539 26.367-6.696 4.086-14.108 6.861-21.841 8.176-.64.164-1.264.382-1.867.651h-9.817zM311.345 360.296c.198-3.042.58-6.083.551-9.124-.037-3.654-.259-7.304-.664-10.935-.208-1.111-.734-2.139-1.514-2.956-.392-.472-.975-.746-1.588-.746-1.031 0-1.911.771-2.047 1.792-.291 1.03-.415 2.1-.368 3.169.467 6.21-1.415 12.038-3.296 17.71-1.485 4.47-5.177 7.681-8.855 10.638-1.665 1.537-3.738 2.564-5.97 2.956h-1.556c-3.366.113-6.719.241-10.086.326-.726.043-1.454-.043-2.15-.255-5.234-1.754-7.653-5.828-8.869-10.878-1.299-5.774-1.728-11.71-1.273-17.611.368-6.097 1.061-12.18 1.584-18.276.184-2.193.283-4.386.396-6.578.099-1.683.198-3.367.241-5.064.141-8.403.311-16.819.353-25.222-.201-1.009-.595-1.969-1.16-2.829-.325-.679-.735-1.33-1.004-2.037-.803-1.923-1.501-3.887-2.093-5.884-.401-1.571-.577-3.19-.524-4.81.142-6.592.509-13.184.524-19.804-.164-1.95-.642-3.861-1.415-5.658-1.033-3.07-.566-6.224-.75-9.336-.073-4.399.871-8.757 2.759-12.731.6-1.231 1.024-2.541 1.259-3.89 0-.623-.778-1.415-1.415-2.023-.877-.863-1.994-1.514-2.829-2.433-1.415-1.698-.948-3.72-.453-5.658 1.188-4.584 2.462-9.153 3.763-13.707 1.103-3.82 1.33-7.865 2.334-11.614 1.245-4.597-1.004-8.105-1.924-12.052-.65-2.73-1.556-5.404-2.207-8.134-.65-2.312-1.081-4.68-1.287-7.073 0-4.032.971-8.006 2.829-11.585.199-.398.462-.761.778-1.075 3.89-4.158 8.863-7.152 14.358-8.643 3.311-.907 6.724-1.382 10.157-1.414 2.639.107 5.215.844 7.511 2.15 4.338 2.103 8.629 4.319 12.873 6.648 3.295 1.825 6.464 3.89 9.675 5.871 1.047.636 2.037 1.414 3.084 1.994 4.753 2.829 7.483 7.441 10.906 11.458 3.904 4.583 6.946 9.902 11.854 13.594 6.267 4.696 12.491 9.421 18.941 13.849 8.212 5.619 15.451 12.543 21.431 20.496 3.093 4.004 6.463 7.785 10.085 11.317 3.905 3.862 6.408 8.19 6.677 13.735.269 5.545.906 10.808.736 16.197-.128 3.933-2.829 6.691-6.125 8.912-2.222 1.503-4.189 3.351-5.828 5.474-3.749 4.767-7.596 9.11-13.495 11.529-14.033 5.757-27.924 11.91-41.857 17.894l-.679.311c1.047 2.292 2.065 4.569 3.098 6.847 1.528 3.296 3.098 6.563 4.527 9.902.222.684.14 1.432-.227 2.051-2.433 3.72-5.191 7.242-7.426 11.076-2.433 4.159-4.329 8.614-6.592 12.872-2.382 4.883-5.076 9.608-8.063 14.146-1.641 2.32-4.753 3.607-7.2 5.361l-.495-.24zm-9.987-55.494l-.368-.622c.255-.665.523-1.415.778-2.023 2.617-6.931 5.192-13.891 5.729-21.331.184-3.544.085-7.096-.297-10.624-.099-1.103-.113-2.956-1.839-3.055-1.734.084-3.285 1.127-4.017 2.702-2.477 4.247-3.979 8.992-4.4 13.891-.814 8.723-3.181 17.231-6.987 25.122-2.101 3.87-3.717 7.985-4.81 12.25-.126.382-.19.782-.19 1.184 0 2.08 1.712 3.791 3.791 3.791.549 0 1.092-.119 1.59-.349 4.089-1.542 7.979-3.579 10.61-7.229 1.978-2.666 4.678-4.713 7.78-5.898 2.071-.817 4.008-1.943 5.743-3.339 1.851-1.569 3.453-3.41 4.753-5.46 2.32-3.706 4.441-7.554 6.422-11.472 2.475-4.908 4.809-9.902 7.073-14.924 1.683-3.805 1.075-6.662-1.415-8.487-2.079-1.584-4.442-1.146-6.662-.693-1.569.277-3.035.971-4.244 2.009-.977 1.264-1.702 2.705-2.136 4.243-2.037 5.135-3.65 10.468-6.111 15.377-2.618 4.799-5.513 9.442-8.671 13.905-.411.551-1.415.679-2.122 1.032zm89.443-51.928c-.444-6.706-2.275-13.248-5.376-19.21-1.121-2.427-3.059-4.385-5.474-5.531-2.56-1.089-4.626-.17-5.093 2.674-.163.519-.376 1.021-.636 1.499-.423.834-.755 1.712-.99 2.617-.807 5.036-1.486 10.1-2.278 15.15-.636 4.046-1.414 8.077-2.079 12.109-.849 4.866-1.669 9.732-2.617 14.584-.241 1.259-.212 2.475.905 2.914.679.269 1.768-.425 2.631-.792.334-.212.615-.498.821-.835 2.475-3.211 5.078-6.323 7.384-9.647 2.829-4.018 5.432-8.049 9.902-10.553 1.874-.926 3.019-2.892 2.9-4.979zm-60.827-76.627c.552-5.248-3.918-10.736-7.865-12.986-2.616-1.414-5.106-.452-5.658 2.518-.405 2.216-.514 4.475-.325 6.719.364 4.278.987 8.53 1.867 12.732.92 4.088 1.231 8.374 3.48 12.108.82 1.415 1.584 2.829 3.409 2.532 1.825-.297 2.376-1.853 2.744-3.451 0-.326.085-.665.128-1.005l.891-7.709c.415-3.829.839-7.648 1.273-11.458h.056zm4.244 36.354l-.396.085c-.104 1.178-.081 2.364.071 3.537.156.828.676 1.545 1.414 1.952.853.019 1.674-.332 2.249-.962.821-.929 1.559-1.928 2.207-2.985 1.415-1.924 3.324-3.423 3.522-6.125.184-2.391.906-4.753 1.245-7.073.594-4.243 0-8.134-3.819-10.864-1.641-1.174-3.296-2.305-4.923-3.494-2.122-1.541-3.48-.947-4.045 1.613-1.118 4.951.325 9.902.283 14.74 0 .325.24.636.297.962.641 2.838 1.277 5.71 1.909 8.614h-.014zm-35.364-58.775l-.325-.099c-.156-1.414-.227-2.702-.481-4.031-.186-1.667-1.182-3.139-2.66-3.933-1.823-.88-3.715-1.608-5.658-2.178-3.154-.905-5.658 1.075-5.658 4.385v6.96c.058 4.702 1.14 9.337 3.169 13.579 1.089 2.391 2.829 2.547 4.54.481.286-.401.678-.714 1.132-.905 1.76-.332 3.169-1.669 3.593-3.409.919-3.593 1.627-7.243 2.419-10.85h-.071zm1.415 12.958c.268 2.829-.269 5.814 1.655 8.346.14.245.208.524.198.806-.099 2.219 1.477 4.19 3.663 4.583 2.066.481 3.523.099 4.103-1.895 1.23-4.244 2.404-8.488 3.579-12.731.724-1.865.673-3.945-.142-5.772-1.319-2.551-2.774-5.03-4.357-7.426-.699-.838-1.738-1.321-2.829-1.316-2.673.045-4.857 2.236-4.894 4.909-.255 3.522-.495 7.016-.849 10.496h-.127zm59.892 45.591c-.155-1.061 0-2.829-.679-3.876-1.508-2.1-3.331-3.956-5.403-5.503-.672-.487-1.481-.75-2.311-.75-2.157 0-3.932 1.776-3.932 3.933 0 .061.001.123.004.184-.07 3.324-.141 6.677 0 10.001.061 3.23.911 6.397 2.476 9.223.948 1.613 2.461 1.683 3.989 1.584 1.528-.099 2.065-1.146 2.348-2.504.202-.498.458-.972.764-1.414.751-1.223 1.359-2.528 1.811-3.89.452-2.179.565-4.399.933-6.988zm-91.55-49.623l.396.17c0 2.249.919 4.795 3.239 8.586.988 1.644 2.075 3.226 3.254 4.739.744 1.147 2.265 1.531 3.465.877 1.415-.75 2.929-1.301 2.532-3.565-.222-2.076-.316-4.164-.282-6.252-.156-2.475-.227-4.965-.623-7.398s-2.235-3.749-4.767-4.102c-1.986-.471-4.065.372-5.163 2.093-.818 1.557-1.505 3.18-2.051 4.852zm105.031 54.135c.014-1.177-.148-2.35-.481-3.479-.665-1.951-1.719-3.746-3.098-5.277-1.061-.962-3.055-.919-4.654-1.287-.227-.006-.447.081-.608.241-1.296.959-2.008 2.523-1.881 4.13.891 5.46 1.881 10.906 2.829 16.352.118 1.306 1.249 2.306 2.56 2.264 1.296-.014 2.39-1.004 2.532-2.292.135-.451.325-.883.566-1.287.708-1.028 1.274-2.146 1.683-3.324.306-2.001.49-4.018.552-6.041zm-102.287 20.441c.232 4.543-1.003 9.042-3.522 12.83-1.704 2.206-2.304 5.076-1.627 7.78.693 3.197 1.344 6.408 1.896 9.619.282 1.556.212 3.169.509 4.71.099.496.849.863 1.287 1.288.424-.439 1.075-.835 1.231-1.415.13-.832.182-1.675.155-2.518.51-5.375 1.038-10.75 1.585-16.126.565-5.658 1.202-11.203 1.754-16.805.095-.673-.003-1.36-.283-1.98-.445-.593-.98-1.113-1.585-1.542-.557.568-1.033 1.211-1.414 1.91-.115.745-.111 1.505.014 2.249zm9.831 102.244h.311c-.198-2.518-.311-5.064-.65-7.568-.18-.738-.708-1.346-1.415-1.626-.808-.087-1.613.194-2.192.763-.925.988-1.582 2.196-1.91 3.509-.778 5.474-1.415 10.991.919 16.309 1.061 2.405 1.033 2.419 3.41 1.415 1.697-.693 3.027-4.173 2.263-5.658-.4-.814-.635-1.698-.693-2.603-.113-1.485-.043-3.013-.043-4.541zm35.435 0c.691-.569 1.3-1.23 1.811-1.966 2.362-4.951 4.682-9.902 6.917-14.966.477-.993.644-2.107.481-3.197-.222-1.513-1.5-2.665-3.027-2.73-1.676.094-3.145 1.173-3.735 2.744-.622 2.263-1.075 4.583-1.542 6.889-.679 3.338-1.131 6.733-2.023 10.015-.498 1.172-.008 2.547 1.118 3.141v.07zm-29.522-42.847c-.371-1.446-.843-2.864-1.414-4.243-.434-.545-1.119-.829-1.811-.75-.618.354-1.064.948-1.231 1.641-1.174 4.144-2.178 8.346-3.395 12.49-.721 2.419-1.74 4.753-2.546 7.073-.496 1.189-.189 2.57.764 3.437 1.415 1.274 2.829 1.033 3.367-.466 1.018-2.829 2.008-5.659 3.182-8.332 1.647-3.437 2.69-7.131 3.084-10.921v.071zm-11.161-118.299c-1.651 1.366-2.674 3.35-2.829 5.488-.127 2.546-.764 5.008.184 7.639.467 1.301.509 2.744 2.051 3.083 1.542.34 2.447-.848 3.155-2.051 2.576-4.717 1.505-10.644-2.561-14.159zm5.984 25.631c0-.99-.792-2.221-1.754-2.164-1.259.085-2.532.17-3.805.184-1.612.036-2.918 1.372-2.918 2.984 0 .243.03.486.088.722.651 1.91 1.344 3.805 2.052 5.658.295 1.311 1.485 2.24 2.829 2.207 1.42-.082 2.569-1.225 2.659-2.645.325-2.065.538-4.286.849-6.889v-.057zm-5.658 159.096c1.874-.242 3.29-1.859 3.281-3.749.001-.019.001-.038.001-.057 0-1.311-1.079-2.39-2.391-2.39h-.043c-1.244 0-3.72 2.447-3.692 3.636.034 1.45 1.236 2.625 2.687 2.625.071 0 .142-.003.213-.008l-.056-.057zm6.082-2.023c-1.007 1.417-1.892 2.917-2.645 4.484-.1.238-.152.494-.152.752 0 1.064.875 1.938 1.938 1.938.21 0 .419-.034.619-.101 1.202-.325 3.225-2.306 2.942-3.395-.489-1.116-1.158-2.143-1.98-3.041-.218-.215-.454-.409-.708-.58l-.014-.057zM382.794 185.498c-4.399-1.527-6.705-4.951-9.308-8.218-3.663-4.555-6.04-9.775-8.784-14.825-.85-1.521-1.901-2.92-3.126-4.159-.552-.58-1.627-.679-2.476-1.004-.325 1.995-.481 3.664-.891 5.262-.474 1.879-2.177 3.205-4.115 3.205-.865 0-1.71-.264-2.42-.758-1.806-.829-3.25-2.288-4.06-4.102-.24-.636-1.316-.962-1.938-1.414v-3.226c1.698-1.57 1.655-1.754.113-3.762-.649-.885-1.151-1.869-1.485-2.914-.083-.579.117-1.164.537-1.571 2.914-2.362 2.83-4.102-.537-5.997-.274-.188-.53-.402-.764-.637 1.754-.863 2.928-1.895 1.528-3.763 1.598-2.192 1.513-2.716-.566-4.668-.257-.262-.386-.624-.354-.99.538-2.985 1.104-5.955 1.754-8.912.156-.721.708-1.414.934-2.093.31-.763.455-1.582.424-2.405-.205-2.64.56-5.266 2.15-7.384.938-1.234.695-3.021-.537-3.961-.75-.778-1.415-1.669-2.164-2.617 1.909-.396 3.564 2.235 5.149-.113 1.584-2.348.778-4.173-1.189-5.658.37-.509.963-.811 1.592-.811.629 0 1.222.302 1.591.811 1.415 1.57 2.829 3.197 4.456 4.626 1.233 1.295 2.702 2.342 4.329 3.083 2.817.862 5.685 1.551 8.586 2.066.935.181 1.88.313 2.829.396 1.797.198 3.607.353 5.418.566 2.783.295 5.318 1.743 6.988 3.989 1.551 1.638 2.943 3.418 4.159 5.318 1.007 2.324 1.77 4.747 2.277 7.229 1.415 5.658.778 11.231.17 16.974-.538 5.008-.127 10.115-.226 15.179-.156 7.073-.397 14.23-.609 21.331 0 .792-2.263 3.452-2.956 3.31-.746-.206-1.369-.721-1.712-1.414-.226-.821-.259-1.682-.099-2.518.524-5.375 1.089-10.751 1.641-16.126.106-.494.106-1.005 0-1.5-.206-.563-.608-1.035-1.132-1.329-.516-.043-1.02.175-1.343.58-.59.905-1.114 1.85-1.571 2.829-.455 1.315-1.088 2.562-1.881 3.706-.566.608-1.924.622-2.914.637-1.415 0-2.829-.283-4.244-.269-1.697 0-2.518 1.584-1.329 2.829 1.232.969 2.57 1.794 3.989 2.461.65.396 1.57.736 1.839 1.344 1.495 3.611 2.269 7.479 2.277 11.387zm2.716-31.304c.41.241.736.467 1.075.637 1.259.608 2.278 0 2.009-1.344-.521-2.688-1.201-5.343-2.037-7.95-.764-2.277-1.938-4.413-2.829-6.663-.569-1.414-1.787-2.469-3.268-2.829-1.075-.297-2.221-.749-1.839-1.895.367-1.089 1.188-1.966 2.249-2.405 2.037-.594 2.829.212 3.975 3.098.778 2.051 1.203 2.235 3.268 1.414.24-3.253.155-6.422-2.164-9.095-.17-.198-.128-.623-.114-.934 0-1.796-.933-2.659-2.673-2.136-1.297.392-2.531.969-3.664 1.712-6.501 4.381-11.76 10.371-15.263 17.385-.519 1.235-1.616 2.136-2.928 2.405-1.134.196-1.97 1.19-1.97 2.341 0 .748.353 1.454.951 1.902 1.381.909 2.828 1.713 4.329 2.405.483.242.923.562 1.301.948 2.83 3.381 5.517 6.775 8.035 9.902 1.599-.439 2.645-.778 3.735-1.005 2.07-.34 3.915-1.511 5.106-3.239.92-1.499 1.768-3.055 2.702-4.654h.014zm-.354-32.535c-.208-1.457-1.469-2.55-2.94-2.55-.394 0-.784.078-1.148.23-4.738 1.104-7.879 4.414-10.835 7.95-.651.778-1.16 1.655-1.74 2.476 5.163-3.607 10.369-6.819 16.649-8.134l.014.028z"/>
        <path d="M264.098 375.163c.849.527 1.666 1.103 2.448 1.725 2.063 1.691 4.66 2.598 7.327 2.561 4.357.169 8.714.24 13.071 0 4.632-.175 9.223-.935 13.664-2.264.816-.188 1.643-.325 2.476-.41.325 0 .778 0 .962-.212 1.236-1.203 2.731-2.108 4.371-2.645 2.165-1.095 4.271-2.303 6.308-3.622 5.659-3.211 10.553-7.398 15.73-11.231 9.11-6.748 14.542-15.772 18.305-26.113.071-.198.17-.382.396-.863l5.022 10.793c.282.609.523 1.245.82 1.839 1.146 2.447 1.089 2.348-1.047 3.904-3.706 2.688-7.285 5.545-10.991 8.233-6.309 4.612-10.892 10.878-16.112 16.536-4.569 4.965-8.911 10.199-13.891 14.726-4.362 4.102-10.253 6.187-16.225 5.743-3.154-.226-6.309-.453-9.463-.424-3.155.028-5.97-1.415-8.898-2.348-4.866-1.486-8.487-4.838-11.882-8.29-1.234-1.508-2.192-3.222-2.829-5.064-.297-.537.212-1.457.438-2.574zM312.49 113.455c-1.06-.17-2.362 0-3.112-.594-1.761-1.233-3.294-2.765-4.526-4.527-.524-.82.184-2.546.594-3.777.454-1.573 1.141-3.071 2.037-4.442.921-1.323 2.143-2.409 3.565-3.168 1.191-.41 2.486-.41 3.677 0 1.303.502 2.546 1.147 3.707 1.924 2.645 1.414 2.518 4.158 2.914 6.62.035.444.13.882.283 1.301 1.004 2.263.891 2.66-1.175 3.975-2.377 1.569-5.122 2.495-7.964 2.688zM180.512 167.236c-11.189.764-22.053 1.938-32.535 5.659l-.453-.283c1.061-2.66 2.122-5.305 3.155-7.865 10.255-1.457 20.044-1.146 29.833 2.489zM274.029 112.818c-.817-.084-1.622-.25-2.405-.495-2.829-1.146-2.73-1.556-2.179-4.159.857-3.295 2.091-6.48 3.678-9.491.316-.631.964-1.031 1.669-1.031.706 0 1.353.4 1.67 1.031.533.717.874 1.56.99 2.447.297 2.829.495 5.658.622 8.416.043 2.306-1.004 3.141-4.045 3.282z"/>
    </g>
    <g>
        <path d="M698.801 365.288c0 20.698-13.368 28.269-38.33 28.269H556.932v-40.534h85.38v-75.367h-49.158c-26.304 0-36.222-10.876-36.222-31.047v-99.035c0-21.033 13.368-29.322 38.809-29.322h94.867v40.725h-77.187v78.625h49.158c26.304 0 36.222 11.067 36.222 31.43v96.256zM869.561 158.977h-49.59v234.771h-56.488V158.977h-49.159v-40.725h155.237v40.725zM1036.06 365.288c0 19.644-12.08 28.269-37.519 28.269h-75.51c-23.956 0-37.947-7.906-37.947-28.269V146.52c0-19.165 12.506-28.268 37.947-28.268h75.462c24.577 0 37.567 7.953 37.567 28.268v218.768zm-56.54-12.265V158.977h-37.947v194.046h37.947zM1207.63 263.139c0 21.081-13.37 28.987-38.81 28.987h-55.62v101.431h-56.49V118.252h112.11c25.44 0 38.81 8.289 38.81 29.322v115.565zm-56.58-11.739v-92.423h-37.85V251.4h37.85zM1456.39 393.557h-56.2V292.126h-38.33v101.431h-56.77V147.574c0-21.033 13.65-29.322 39.24-29.322h112.06v275.305zm-56.2-141.773v-92.807h-38.33v92.807h38.33zM1627.15 158.977h-49.68v234.771h-56.35V158.977h-49.06v-40.725h155.19l-.1 40.725zM1872.51 393.557h-56.49V258.683l-36.22-45.9h-2.15v180.774h-56.45V118.252h47.01l45.27 58.645h2.59v-58.645h56.49l-.05 275.305zM2044.13 365.288c0 19.644-12.07 28.269-37.51 28.269h-75.46c-23.96 0-37.95-7.906-37.95-28.269V146.52c0-19.165 12.51-28.268 37.95-28.268h75.46c24.58 0 37.51 7.953 37.51 28.268v218.768zm-56.48-12.265V158.977h-37.95v194.046h37.95zM2214.7 158.977h-49.4v234.771h-56.48V158.977h-49.16v-40.725h155.04v40.725zM2381.77 393.557h-56.49V277.656h-38.33v115.901h-56.53V118.252h56.49v119.35h38.33v-119.35h56.49l.04 275.305zM2402.47 118.252h56.585v275.305h-56.585zM2631.01 393.557h-56.48V258.683l-36.23-45.9h-2.15v180.774h-56.49V118.252h47l45.28 58.645h2.59v-58.645h56.48v275.305zM2803.07 393.557h-112.55c-25.01 0-38.81-7.571-38.81-28.269V147.574c0-21.033 13.8-29.322 39.24-29.322h100.04v40.725h-82.79v194.046h38.33v-114.99h56.54v155.524z"/>
    </g>
</svg>
