<svg xmlns="http://www.w3.org/2000/svg" viewBox="0 0 469 57">
    <path fill="#fff" d="M30 52c0 4-3 5-8 5H0v-8h18V33H8c-6 0-8-2-8-6V6c0-4 3-6 8-6h20v9H12v16h10c6 0 8 2 8 6zM65 9H55v49H43V9H33V0h32zM100 52c0 4-3 5-8 5H76c-5 0-8-1-8-5V6c0-4 3-6 8-6h16c5 0 8 2 8 6zm-12-3V9h-8v40zM136 30c0 5-3 6-8 6h-12v21h-12V0h24c5 0 8 2 8 6zm-12-2V9h-8v19zM188 57h-12V36h-8v21h-12V6c0-4 3-6 8-6h24zm-12-29V9h-8v19zM223 9h-10v49h-12V9h-10V0h32zM275 57h-12V29l-8-9v37h-12V0h10l9 12h1V0h12zM310 52c0 4-2 5-7 5h-16c-5 0-8-1-8-5V6c0-4 3-6 8-6h16c5 0 7 2 7 6zm-11-3V9h-8v40zM346 9h-10v49h-12V9h-10V0h32zM381 57h-12V33h-8v24h-12V0h12v25h8V0h12zM397 57h-12V0h12zM433 57h-12V29l-7-9h-1v37h-12V0h10l10 12V0h12zM469 57h-24c-5 0-8-1-8-5V6c0-4 3-6 8-6h21v9h-17v40h8V25h12z"/>
</svg>
