<svg xmlns="http://www.w3.org/2000/svg" viewBox="0 0 471 35">
    <path fill="#fff" d="M83 0a19 19 0 0 0-16 9V1H12C6 1 0 3 0 11c0 7 5 11 11 11h9l2 1c0 1 0 2-2 2H1v9h22c7 0 12-4 12-11 0-6-5-10-12-10h-8c-2 0-3-1-3-2l3-2h29v25h12V9h10a16 16 0 0 0-2 8c0 10 9 18 19 18s19-8 19-18S94 0 83 0zm0 24a7 7 0 0 1-6-7c0-3 3-6 6-6s7 3 7 6a7 7 0 0 1-7 7zM128 1h-25v33h12V22h13c6 0 12-5 12-11 0-7-4-10-12-10zm-2 12h-11V9h11l2 2a2 2 0 0 1-2 2zM159 1l-11 33h13l1-3h13l1 3h13L178 1zm6 21l3-13h1l4 13zM183 9h11v25h12V9h11V1h-34v8zM255 18h-1L240 1h-13v33h13V17l15 17h12V1h-12v17zM363 13h-15V1h-45v8a19 19 0 0 0-17-9c-10 0-19 8-19 17s9 18 19 18 19-8 19-18a16 16 0 0 0-2-8h11v25h12V9h10v25h12V22h15v12h13V1h-13zm-77 11a7 7 0 0 1-6-7c0-3 3-6 6-6s7 3 7 6a7 7 0 0 1-7 7zM378 1h12v34h-12zM419 18L404 1h-12v33h12V17h1l14 17h13V1h-13v17zM451 18v4h7c-2 2-4 3-7 3a8 8 0 0 1-7-8c0-4 3-7 7-7s7 2 8 4h12c-1-8-8-14-19-14s-20 8-20 17 9 18 20 18 19-8 19-17z" />
</svg>
